<?xml version="1.0" standalone="no"?><!DOCTYPE svg PUBLIC "-//W3C//DTD SVG 1.1//EN" "http://www.w3.org/Graphics/SVG/1.1/DTD/svg11.dtd"><svg t="1642067005457" class="icon" viewBox="0 0 1024 1024" version="1.1" xmlns="http://www.w3.org/2000/svg" p-id="2404" xmlns:xlink="http://www.w3.org/1999/xlink" width="200" height="200"><defs><style type="text/css"></style></defs><path d="M923.198439 337.870049c-21.678829-53.148098-53.148098-99.10322-96.705561-142.660683-84.617366-84.617366-188.715707-128.174829-307.2-130.67239h-7.192976c-123.379512 0-229.77561 43.557463-316.890536 130.67239C107.994537 284.721951 64.437073 388.620488 64.437073 512s43.557463 229.77561 130.67239 316.890537S388.620488 959.463024 512.099902 959.463024c123.379512 0 227.477854-43.557463 314.392976-130.572487 84.617366-82.219707 128.174829-181.422829 133.070049-295.111805v-21.878634c0-62.738732-12.088195-120.782049-36.364488-174.030049zM732.085073 163.740098c31.469268 19.381073 58.043317 41.059902 82.219707 67.733853l-166.837073 125.777171c-2.397659 0-2.397659 0-2.397658 2.397658-4.89522-4.89522-12.088195-9.590634-19.381073-14.485853-19.381073-9.690537-41.059902-14.485854-62.938537-14.485854v-2.397658l-53.248-200.803903c77.42439-16.883512 150.053463-4.795317 222.582634 36.264586z m-65.236293 370.138536c-4.89522 33.866927-19.381073 65.236293-46.055024 89.512586-28.971707 31.469268-67.733854 45.955122-108.893658 45.955121-43.557463 0-82.219707-14.485854-111.191415-45.955121-31.469268-29.07161-45.955122-67.733854-45.955122-111.39122 0-41.059902 14.485854-77.42439 45.955122-108.893659 28.971707-28.971707 67.733854-45.955122 111.191415-45.955121h7.192975c38.662244 0 72.529171 16.983415 101.600781 45.955121 14.485854 12.088195 24.17639 29.07161 33.866926 43.557464 7.192976 21.678829 12.088195 43.557463 12.088196 65.236293l0.199804 21.978536z m12.088196-120.981854c-2.397659-9.690537-7.192976-19.381073-12.088196-26.574048h2.397659L836.183415 258.147902c19.381073 31.469268 33.866927 62.938537 45.955122 99.203122l-203.201561 55.545756z m-169.334635 12.088196c24.17639 0 45.955122 9.690537 62.938537 26.574048 16.983415 16.983415 24.17639 36.364488 26.574049 60.440976-2.397659 24.17639-9.590634 45.955122-26.574049 62.938537s-38.662244 26.574049-62.938537 26.574048c-24.17639 0-45.955122-9.690537-62.938536-26.574048-16.983415-16.983415-24.17639-38.662244-24.17639-62.938537s7.192976-43.557463 24.17639-60.440976c16.983415-16.983415 38.662244-26.574049 62.938536-26.574048z" p-id="2405"></path></svg>